PathFileType	4	(x/y/z)	S08_M20_T04
DataRate	CameraRate	NumFrames	NumMarkers	Units	OrigDataRate	OrigDataStartFrame	OrigNumFrames
240	240	11	51	mm	240	58	463
Frame#	Time	Sternum			R.Acromium			L.Acromium			Top.Head			R.ASIS			L.ASIS			R.PSIS			L.PSIS			R.Great.Tro			L.Great.Tro			R.Iliac.Crest			L.Iliac.Crest			V.Sacral			R.Thigh.Upper.Post			R.Thigh.Lower.Ant			R.Thigh.Lower.Post			R.Thigh.Upper.Ant			R.Knee.Lat			R.Knee.Med			R.Shank.Upper.Post			R.Shank.Lower.Ant			R.Shank.Lower.Post			R.Shank.Upper.Ant			R.Ankle.Lat			R.Ankle.Med			R.Heel.Upper			R.Heel.Med			R.Heel.Lat			R.Toe.Lat			R.Toe.Med			R.Toe.Tip			L.Thigh.Upper.Post			L.Thigh.Lower.Ant			L.Thigh.Lower.Post			L.Thigh.Upper.Ant			L.Knee.Lat			L.Knee.Med			L.Shank.Upper.Post			L.Shank.Lower.Ant			L.Shank.Lower.Post			L.Shank.Upper.Ant			L.Ankle.Lat			L.Ankle.Med			L.Heel.Upper			L.Heel.Med			L.Heel.Lat			L.Toe.Lat			L.Toe.Med			L.Toe.Tip			Cervical.Spine			Back			
		X1	Y1	Z1	X2	Y2	Z2	X3	Y3	Z3	X4	Y4	Z4	X5	Y5	Z5	X6	Y6	Z6	X7	Y7	Z7	X8	Y8	Z8	X9	Y9	Z9	X10	Y10	Z10	X11	Y11	Z11	X12	Y12	Z12	X13	Y13	Z13	X14	Y14	Z14	X15	Y15	Z15	X16	Y16	Z16	X17	Y17	Z17	X18	Y18	Z18	X19	Y19	Z19	X20	Y20	Z20	X21	Y21	Z21	X22	Y22	Z22	X23	Y23	Z23	X24	Y24	Z24	X25	Y25	Z25	X26	Y26	Z26	X27	Y27	Z27	X28	Y28	Z28	X29	Y29	Z29	X30	Y30	Z30	X31	Y31	Z31	X32	Y32	Z32	X33	Y33	Z33	X34	Y34	Z34	X35	Y35	Z35	X36	Y36	Z36	X37	Y37	Z37	X38	Y38	Z38	X39	Y39	Z39	X40	Y40	Z40	X41	Y41	Z41	X42	Y42	Z42	X43	Y43	Z43	X44	Y44	Z44	X45	Y45	Z45	X46	Y46	Z46	X47	Y47	Z47	X48	Y48	Z48	X49	Y49	Z49	X50	Y50	Z50	X51	Y51	Z51	

58	0.2375	-1169	1222.7	321.19	-1284.5	1456.9	498.91	-1322.7	1477	164.34	-1292.6	1774.6	343.14	-1184.4	997.98	436.39	-1179.7	1013.3	206.54	-1402.5	994.81	309.93	NaN	NaN	NaN	-1267.2	880.29	500.06	-1263.6	912.35	133.29	-1283.3	1065.9	484.66	-1277.8	1094.7	176.41	NaN	NaN	NaN	-1268.1	678.5	487.97	-1176.5	585.48	477.11	-1251.8	588.91	473.07	-1187.8	679.31	491.01	-1212.5	490.98	472.52	-1215.7	489.08	337.42	-1385.2	424.51	478.26	-1393.6	334.99	459.75	NaN	NaN	NaN	-1331.8	379.87	467.45	-1582.6	284.53	443.31	-1548.3	260.71	366.43	-1631.8	304.97	389.25	-1643.8	280.43	363.46	-1651.3	292.85	423.24	NaN	NaN	NaN	-1555.5	118.51	364.96	NaN	NaN	NaN	-1231.5	694.96	154.62	-1126.1	628.82	184.97	-1196.1	613.25	176.97	-1157.1	708.43	156.94	-1159.3	519.91	200.79	-1168.7	523.4	325.62	-1218	339.4	198.66	-1151.5	253.73	227.75	-1222.8	267.12	215.34	-1151.9	327.48	209.7	-1212.2	98.492	235.48	-1187.9	103.39	325.41	-1262.1	73.896	287.9	-1249.2	40.095	316.94	-1256.6	48.823	254.02	-1081.8	42.03	216.83	-1060.8	41.701	331.46	-997.26	61.279	282.22	-1376.2	1510.8	332.11	-1410.9	1224.4	348.2
59	0.24167	-1163.9	1223.8	321.07	-1279.3	1457.9	498.79	-1317.3	1478.2	164.23	-1287.1	1775.6	343.22	-1179.2	999.21	436.04	-1174.5	1014.3	206.21	-1397.5	995.71	309.9	NaN	NaN	NaN	-1261.1	881.42	499.92	-1259	913.14	133.15	-1278	1067	484.47	-1273	1095.6	176.24	NaN	NaN	NaN	-1259.4	679.51	487.97	-1166.8	587.7	477.26	-1242.8	590.14	473.1	-1179.3	681.34	491.05	-1201.4	492.71	472.41	-1204.8	490.84	337.3	-1373.1	424.63	478.26	-1381	335.21	459.8	NaN	NaN	NaN	-1319.7	380.56	467.37	-1569.5	282.95	443.44	-1535.3	259.53	366.57	-1619.6	302.25	389.6	-1631.4	277.32	363.88	-1638.9	289.92	423.65	NaN	NaN	NaN	-1539.8	117.24	365.75	-1494.1	75.103	415.85	-1228.2	695.63	154.38	-1123.6	628.63	185.06	-1193.6	613.63	176.79	-1154.2	708.41	157.2	-1157.5	519.9	200.79	-1167.3	523.47	325.46	-1217.1	339.55	198.63	-1150.9	253.67	227.76	-1222.1	267.28	215.37	-1151	327.36	209.69	-1212.1	98.623	235.57	-1187.8	103.36	325.43	-1262.1	73.992	287.92	-1249.2	40.14	316.95	-1256.6	48.922	253.99	-1081.8	41.983	216.8	-1060.6	41.577	331.54	-997.2	60.997	282.21	-1370.9	1511.7	331.88	-1405.8	1225.5	347.86
60	0.24583	-1158.9	1224.8	320.95	-1274.2	1458.8	498.67	-1311.9	1479.3	164.13	-1281.6	1776.6	343.3	-1174.1	1000.4	435.69	-1169.4	1015.3	205.89	-1392.5	996.58	309.89	NaN	NaN	NaN	-1255.1	882.54	499.79	-1254.4	913.89	133.01	-1272.8	1068.1	484.28	-1268.2	1096.6	176.07	NaN	NaN	NaN	-1250.7	680.55	488	-1157.2	589.97	477.36	-1233.6	591.41	473.15	-1170.9	683.4	491.05	-1190.4	494.49	472.27	-1194	492.66	337.16	-1361.1	424.66	478.27	-1368.3	335.36	459.85	NaN	NaN	NaN	-1307.6	381.21	467.26	-1556.2	281.13	443.58	-1522.1	258.16	366.71	-1607.4	299.27	389.99	-1618.8	273.96	364.33	-1626.3	286.69	424.1	NaN	NaN	NaN	-1523.9	115.84	366.48	-1479.1	74.651	416.47	-1224.9	696.29	154.14	-1121.2	628.43	185.13	-1191.1	613.99	176.62	-1151.3	708.4	157.43	-1155.8	519.88	200.78	-1166	523.53	325.32	-1216.3	339.71	198.6	-1150.3	253.62	227.76	-1221.5	267.43	215.39	-1150.2	327.24	209.68	-1212	98.762	235.66	-1187.7	103.33	325.44	-1262.1	74.094	287.94	-1249.2	40.19	316.96	-1256.5	49.021	253.97	-1081.8	41.937	216.78	-1060.5	41.46	331.61	-997.13	60.714	282.21	-1365.4	1512.7	331.66	-1400.8	1226.5	347.53
61	0.25	-1153.8	1225.8	320.83	-1269	1459.7	498.55	-1306.5	1480.4	164.04	-1276.2	1777.5	343.37	-1168.9	1001.6	435.36	-1164.3	1016.3	205.56	-1387.5	997.41	309.88	NaN	NaN	NaN	-1249	883.66	499.68	-1249.9	914.62	132.87	-1267.6	1069.2	484.11	-1263.4	1097.5	175.9	NaN	NaN	NaN	-1242	681.62	488.06	-1147.6	592.26	477.4	-1224.2	592.74	473.22	-1162.5	685.48	491.01	-1179.4	496.31	472.09	-1183.4	494.54	337.01	-1349	424.61	478.27	-1355.6	335.45	459.89	NaN	NaN	NaN	-1295.5	381.82	467.14	-1542.9	279.08	443.75	-1508.9	256.61	366.84	-1595	296.03	390.41	-1606.2	270.35	364.8	-1613.6	283.18	424.59	NaN	NaN	NaN	-1507.8	114.31	367.17	-1463.4	74.157	417.08	-1221.7	696.94	153.9	-1118.7	628.22	185.19	-1188.6	614.35	176.44	-1148.3	708.38	157.63	-1154.1	519.86	200.76	-1164.6	523.6	325.2	-1215.4	339.86	198.57	-1149.7	253.57	227.77	-1220.9	267.59	215.42	-1149.4	327.13	209.67	-1212	98.91	235.75	-1187.7	103.29	325.42	-1262.1	74.201	287.96	-1249.2	40.246	316.97	-1256.5	49.119	253.96	-1081.7	41.893	216.76	-1060.4	41.349	331.66	-997.07	60.431	282.2	-1360	1513.6	331.43	-1395.7	1227.5	347.21
62	0.25417	-1148.8	1226.8	320.71	-1263.8	1460.6	498.43	-1301.1	1481.5	163.95	-1270.7	1778.3	343.43	-1163.8	1002.8	435.03	-1159.2	1017.3	205.23	-1382.5	998.2	309.87	NaN	NaN	NaN	-1242.9	884.76	499.57	-1245.3	915.32	132.74	-1262.4	1070.3	483.94	-1258.5	1098.3	175.73	NaN	NaN	NaN	-1233.4	682.71	488.17	-1138.1	594.59	477.39	-1214.6	594.1	473.32	-1154.1	687.58	490.94	-1168.5	498.16	471.87	-1172.9	496.46	336.86	-1337	424.47	478.28	-1342.9	335.46	459.93	NaN	NaN	NaN	-1283.4	382.38	467	-1529.4	276.81	443.94	-1495.6	254.87	366.98	-1582.4	292.55	390.86	-1593.4	266.52	365.29	-1600.9	279.39	425.12	NaN	NaN	NaN	-1491.4	112.67	367.81	-1447.1	73.623	417.67	-1218.4	697.57	153.67	-1116.3	627.99	185.24	-1186.2	614.7	176.27	-1145.3	708.35	157.78	-1152.5	519.85	200.74	-1163.2	523.65	325.08	-1214.6	340.03	198.55	-1149.1	253.52	227.77	-1220.3	267.76	215.45	-1148.6	327.01	209.67	-1212	99.065	235.83	-1187.7	103.25	325.38	-1262.1	74.313	287.98	-1249.1	40.307	316.98	-1256.4	49.216	253.94	-1081.7	41.85	216.74	-1060.2	41.245	331.71	-997	60.15	282.19	-1354.5	1514.4	331.21	-1390.7	1228.5	346.9
63	0.25833	-1143.8	1227.7	320.59	-1258.5	1461.4	498.31	-1295.8	1482.5	163.87	-1265.2	1779.2	343.48	-1158.7	1003.9	434.72	-1154.2	1018.1	204.91	-1377.5	998.94	309.86	NaN	NaN	NaN	-1236.8	885.85	499.48	-1240.8	915.98	132.61	-1257.2	1071.3	483.78	-1253.7	1099.2	175.57	NaN	NaN	NaN	-1224.7	683.82	488.31	-1128.6	596.93	477.31	-1205	595.5	473.44	-1145.7	689.7	490.83	-1157.6	500.05	471.63	-1162.5	498.43	336.7	-1325	424.24	478.29	-1330.1	335.41	459.96	NaN	NaN	NaN	-1271.3	382.9	466.84	-1515.9	274.33	444.16	-1482.1	252.97	367.11	-1569.8	288.83	391.33	-1580.5	262.46	365.78	-1588	275.34	425.69	NaN	NaN	NaN	-1474.9	110.92	368.4	-1430.2	73.047	418.24	-1215.2	698.18	153.45	-1113.9	627.76	185.29	-1183.7	615.04	176.1	-1142.3	708.33	157.91	-1150.9	519.83	200.71	-1161.8	523.69	324.99	-1213.8	340.19	198.53	-1148.6	253.47	227.77	-1219.7	267.92	215.48	-1147.9	326.89	209.66	-1212	99.227	235.92	-1187.6	103.2	325.33	-1262.1	74.429	287.99	-1249.1	40.374	316.99	-1256.4	49.311	253.93	-1081.6	41.811	216.72	-1060.1	41.148	331.74	-996.92	59.872	282.18	-1349	1515.3	330.99	-1385.7	1229.4	346.6
64	0.2625	-1138.9	1228.6	320.47	-1253.2	1462.2	498.19	-1290.4	1483.6	163.79	-1259.7	1780	343.53	-1153.6	1005	434.41	-1149.2	1019	204.58	-1372.6	999.64	309.86	NaN	NaN	NaN	-1230.7	886.93	499.4	-1236.4	916.6	132.49	-1252	1072.3	483.63	-1248.9	1099.9	175.4	NaN	NaN	NaN	-1216.1	684.96	488.49	-1119.2	599.3	477.18	-1195.3	596.94	473.59	-1137.4	691.83	490.68	-1146.8	501.98	471.36	-1152.2	500.44	336.53	-1313.1	423.92	478.32	-1317.4	335.28	459.99	NaN	NaN	NaN	-1259.3	383.38	466.67	-1502.2	271.64	444.39	-1468.6	250.88	367.25	-1557	284.88	391.82	-1567.6	258.2	366.29	-1574.9	271.03	426.28	NaN	NaN	NaN	-1458.3	109.08	368.94	-1412.9	72.432	418.76	-1212.1	698.78	153.24	-1111.5	627.51	185.32	-1181.3	615.37	175.94	-1139.3	708.29	158	-1149.3	519.81	200.68	-1160.3	523.72	324.9	-1213	340.36	198.51	-1148	253.43	227.78	-1219.1	268.09	215.52	-1147.2	326.78	209.66	-1212	99.392	236.01	-1187.6	103.16	325.26	-1262.1	74.55	288.01	-1249.1	40.447	317	-1256.4	49.405	253.93	-1081.6	41.774	216.7	-1059.9	41.06	331.76	-996.85	59.597	282.17	-1343.4	1516.1	330.78	-1380.7	1230.4	346.3
65	0.26667	-1133.9	1229.4	320.35	-1247.9	1463	498.07	-1285.1	1484.5	163.72	-1254.3	1780.8	343.56	-1148.5	1006.1	434.11	-1144.2	1019.8	204.26	-1367.6	1000.3	309.85	NaN	NaN	NaN	-1224.6	887.99	499.32	-1231.9	917.19	132.37	-1246.8	1073.2	483.47	-1244	1100.7	175.23	NaN	NaN	NaN	-1207.5	686.11	488.7	-1109.9	601.67	476.98	-1185.6	598.4	473.76	-1129	693.97	490.49	-1136.2	503.93	471.06	-1142.2	502.48	336.35	-1301.2	423.53	478.34	-1304.6	335.07	460.02	NaN	NaN	NaN	-1247.2	383.82	466.48	-1488.4	268.75	444.65	-1454.9	248.64	367.39	-1544.2	280.72	392.33	-1554.5	253.73	366.79	-1561.7	266.48	426.9	NaN	NaN	NaN	-1441.4	107.16	369.42	-1395.1	71.777	419.24	-1208.9	699.36	153.05	-1109.1	627.24	185.34	-1178.9	615.69	175.8	-1136.3	708.25	158.06	-1147.8	519.78	200.65	-1158.7	523.74	324.84	-1212.2	340.53	198.49	-1147.5	253.38	227.79	-1218.5	268.26	215.56	-1146.5	326.67	209.66	-1211.9	99.558	236.09	-1187.6	103.11	325.18	-1262.1	74.675	288.03	-1249.1	40.527	317.01	-1256.3	49.497	253.93	-1081.5	41.74	216.68	-1059.7	40.981	331.76	-996.77	59.326	282.16	-1337.9	1516.8	330.57	-1375.7	1231.3	346.01
66	0.27083	-1128.9	1230.2	320.23	-1242.6	1463.7	497.96	-1279.8	1485.5	163.66	-1248.8	1781.5	343.59	-1143.4	1007.1	433.82	-1139.2	1020.5	203.93	-1362.7	1000.9	309.83	NaN	NaN	NaN	-1218.5	889.04	499.27	-1227.5	917.73	132.27	-1241.7	1074.2	483.33	-1239.2	1101.4	175.07	NaN	NaN	NaN	-1199	687.29	488.96	-1100.6	604.05	476.73	-1175.9	599.9	473.95	-1120.7	696.11	490.27	-1125.5	505.9	470.73	-1132.2	504.55	336.17	-1289.3	423.04	478.37	-1291.9	334.78	460.04	NaN	NaN	NaN	-1235.2	384.21	466.28	-1474.6	265.67	444.92	-1441.2	246.22	367.53	-1531.1	276.34	392.85	-1541.3	249.09	367.3	-1548.4	261.69	427.52	NaN	NaN	NaN	-1424.4	105.16	369.85	-1377	71.086	419.65	-1205.8	699.92	152.88	-1106.8	626.97	185.35	-1176.6	615.99	175.66	-1133.3	708.19	158.1	-1146.3	519.75	200.62	-1157.2	523.74	324.79	-1211.4	340.7	198.47	-1147	253.33	227.81	-1217.9	268.43	215.6	-1145.9	326.57	209.66	-1211.9	99.724	236.18	-1187.5	103.06	325.08	-1262.1	74.802	288.05	-1249.1	40.613	317.03	-1256.3	49.586	253.93	-1081.5	41.711	216.67	-1059.5	40.911	331.76	-996.69	59.061	282.14	-1332.3	1517.5	330.36	-1370.7	1232.1	345.73
67	0.275	-1124	1231	320.11	-1237.3	1464.4	497.84	-1274.6	1486.4	163.61	-1243.3	1782.2	343.61	-1138.3	1008.1	433.54	-1134.3	1021.2	203.6	-1357.7	1001.4	309.82	NaN	NaN	NaN	-1212.5	890.08	499.22	-1223.1	918.24	132.17	-1236.5	1075.1	483.18	-1234.3	1102	174.91	NaN	NaN	NaN	-1190.5	688.48	489.24	-1091.3	606.43	476.41	-1166.2	601.41	474.16	-1112.5	698.25	490.01	-1115	507.89	470.38	-1122.5	506.63	335.99	-1277.4	422.48	478.41	-1279.1	334.39	460.06	NaN	NaN	NaN	-1223.1	384.56	466.07	-1460.6	262.41	445.21	-1427.3	243.65	367.68	-1518	271.76	393.38	-1527.9	244.27	367.79	-1534.8	256.69	428.16	NaN	NaN	NaN	-1407.2	103.09	370.23	-1358.6	70.362	420	-1202.8	700.46	152.74	-1104.5	626.68	185.35	-1174.2	616.28	175.53	-1130.2	708.13	158.11	-1144.8	519.72	200.59	-1155.5	523.74	324.76	-1210.6	340.88	198.45	-1146.5	253.27	227.83	-1217.3	268.6	215.64	-1145.3	326.47	209.67	-1211.9	99.886	236.26	-1187.5	103.02	324.98	-1262	74.93	288.08	-1249	40.706	317.04	-1256.2	49.674	253.94	-1081.4	41.685	216.66	-1059.3	40.851	331.74	-996.62	58.801	282.13	-1326.7	1518.2	330.15	-1365.8	1232.9	345.45
68	0.27917	-1119	1231.7	319.99	-1232	1465.1	497.73	-1269.3	1487.4	163.56	-1237.9	1782.9	343.62	-1133.3	1009	433.26	-1129.4	1021.8	203.28	-1352.8	1001.9	309.81	NaN	NaN	NaN	-1206.4	891.1	499.19	-1218.6	918.7	132.09	-1231.3	1075.9	483.04	-1229.5	1102.6	174.76	NaN	NaN	NaN	-1182	689.68	489.55	-1082.2	608.81	476.03	-1156.6	602.94	474.38	-1104.2	700.39	489.71	-1104.6	509.89	470	-1112.8	508.73	335.8	-1265.6	421.84	478.44	-1266.3	333.91	460.06	NaN	NaN	NaN	-1211.1	384.87	465.86	-1446.5	258.98	445.51	-1413.3	240.93	367.83	-1504.6	266.99	393.92	-1514.5	239.29	368.26	-1521.1	251.48	428.81	NaN	NaN	NaN	-1389.9	100.98	370.55	-1339.9	69.611	420.29	-1199.7	700.98	152.62	-1102.1	626.38	185.35	-1171.9	616.56	175.42	-1127.2	708.05	158.11	-1143.3	519.69	200.56	-1153.9	523.73	324.74	-1209.7	341.07	198.43	-1146	253.22	227.86	-1216.7	268.77	215.68	-1144.6	326.38	209.67	-1211.9	100.04	236.34	-1187.5	102.98	324.87	-1262	75.061	288.1	-1249	40.806	317.05	-1256.2	49.76	253.95	-1081.4	41.664	216.65	-1059.1	40.8	331.72	-996.54	58.548	282.11	-1321.1	1518.9	329.96	-1360.8	1233.7	345.17
